HIERARCHY
ROOT Hips
{
	OFFSET 0.000000 0.000000 0.000000
	CHANNELS 6 Xposition Yposition Zposition Zrotation Yrotation Xrotation 
	JOINT LHipJoint
	{
		OFFSET 0.000000 0.000000 0.000000
		CHANNELS 3 Zrotation Yrotation Xrotation
		JOINT LeftUpLeg
		{
			OFFSET 1.363060 -1.794630 0.839290
			CHANNELS 3 Zrotation Yrotation Xrotation
			JOINT LeftLeg
			{
				OFFSET 2.448110 -6.726130 0.000000
				CHANNELS 3 Zrotation Yrotation Xrotation
				JOINT LeftFoot
				{
					OFFSET 2.562200 -7.039590 0.000000
					CHANNELS 3 Zrotation Yrotation Xrotation
					JOINT LeftToeBase
					{
						OFFSET 0.157640 -0.433110 2.322550
						CHANNELS 3 Zrotation Yrotation Xrotation
						End Site
						{
							OFFSET 0.000000 0.000000 0.000000
						}
					}
				}
			}
		}
	}
	JOINT RHipJoint
	{
		OFFSET 0.000000 0.000000 0.000000
		CHANNELS 3 Zrotation Yrotation Xrotation
		JOINT RightUpLeg
		{
			OFFSET -1.305520 -1.794630 0.839290
			CHANNELS 3 Zrotation Yrotation Xrotation
			JOINT RightLeg
			{
				OFFSET -2.542530 -6.985550 0.000000
				CHANNELS 3 Zrotation Yrotation Xrotation
				JOINT RightFoot
				{
					OFFSET -2.568260 -7.056230 0.000000
					CHANNELS 3 Zrotation Yrotation Xrotation
					JOINT RightToeBase
					{
						OFFSET -0.164730 -0.452590 2.363150
						CHANNELS 3 Zrotation Yrotation Xrotation
						End Site
						{
							OFFSET 0.000000 0.000000 0.000000
						}
					}
				}
			}
		}
	}
}
MOTION
Frames: 14
Frame Time: 0.008333
-13.034875 15.986260 -0.748027 149.841571 88.242000 174.079988 -11.497245 1.243934 -4.977208 -6.143390 8.658546 -21.308387 -1.445622 3.150432 50.663451 0.729735 2.821600 -12.829135 -0.375000 -0.000000 -70.899300 8.044284 1.685537 -1.425959 13.513294 4.098458 -60.238631 1.458730 -4.102691 49.791712 -1.545064 -3.842824 -13.006117 0.188700 0.000001 -1.052500
-12.891862 15.976519 -0.719712 150.623123 88.110724 174.831782 -11.555750 1.286178 -4.929013 -5.804586 8.623669 -21.171001 -1.341452 3.198648 51.150180 0.673885 2.557107 -11.738451 -0.279800 -0.000000 -72.159600 8.063041 1.665550 -1.510282 13.659327 3.950911 -59.985650 1.444363 -4.155506 50.669901 -1.614262 -3.917682 -14.144460 0.323200 -0.000000 -1.018200
-12.750126 15.968572 -0.691171 151.178236 87.975212 175.395480 -11.610200 1.324194 -4.873107 -5.494963 8.559630 -21.140324 -1.228576 3.248538 51.703500 0.626658 2.319630 -10.581782 -0.196401 -0.000000 -73.276501 8.081913 1.641063 -1.581778 13.803319 3.806631 -59.724404 1.437307 -4.197846 51.426288 -1.688879 -4.016537 -15.236573 0.457500 -0.000000 -1.110400
-12.609921 15.962304 -0.662363 151.442984 87.834228 175.705476 -11.660773 1.356650 -4.811771 -5.220538 8.470385 -21.215439 -1.106444 3.299390 52.325198 0.588001 2.104554 -9.346051 -0.124300 0.000000 -74.186600 8.101815 1.613665 -1.639433 13.931102 3.673628 -59.464048 1.433127 -4.231579 52.080982 -1.765938 -4.134140 -16.255739 0.589200 0.000000 -1.235900
-12.471559 15.957619 -0.633309 151.407736 87.688721 175.749293 -11.707955 1.382017 -4.747815 -4.984396 8.362104 -21.393351 -0.974909 3.350674 53.016482 0.558271 1.908527 -8.021666 -0.063500 -0.000000 -74.810200 8.123176 1.584624 -1.683219 14.033635 3.558451 -59.211950 1.428788 -4.258457 52.652809 -1.842271 -4.262576 -17.185797 0.715700 0.000000 -1.312300
-12.335331 15.954443 -0.604050 151.070596 87.540595 175.521569 -11.751837 1.398857 -4.684241 -4.789632 8.241389 -21.668852 -0.834826 3.401728 53.775892 0.538755 1.734791 -6.612195 -0.014800 0.000000 -75.053400 8.146354 1.555223 -1.713865 14.105147 3.465252 -58.974039 1.422321 -4.280060 53.158448 -1.914698 -4.392278 -18.017994 0.834500 0.000000 -1.308700
-12.201418 15.952798 -0.574923 150.606129 87.396292 175.192348 -11.794284 1.405376 -4.624209 -4.626949 8.122598 -22.040534 -0.687305 3.453292 54.605369 0.530236 1.582653 -5.117887 0.021600 -0.000000 -74.812000 8.169953 1.525269 -1.733376 14.154774 3.397492 -58.751572 1.413921 -4.297398 53.610891 -1.981072 -4.513799 -18.757155 0.944300 0.000000 -1.166200
-12.070096 15.952729 -0.545806 149.914033 87.256036 174.656198 -11.833279 1.400827 -4.570675 -4.505505 8.008037 -22.496583 -0.535390 3.504040 55.496548 0.535872 1.478218 -3.581432 0.046200 0.000000 -73.983799 8.195147 1.496569 -1.744148 14.176992 3.350013 -58.545632 1.403240 -4.311626 54.018600 -2.038887 -4.617787 -19.403658 1.042900 -0.000000 -0.983300
-11.941461 15.954253 -0.517129 149.234958 87.127747 174.148778 -11.870362 1.383973 -4.526118 -4.410457 7.913678 -23.036767 -0.382003 3.555629 56.451600 0.556580 1.434687 -2.038474 0.062700 -0.000000 -72.468199 8.219824 1.467951 -1.749096 14.191731 3.321030 -58.352000 1.392826 -4.322883 54.385121 -2.087810 -4.697457 -19.975553 1.130700 0.000001 -0.735200
-11.815694 15.957479 -0.488806 148.486265 87.010409 173.580984 -11.903339 1.354891 -4.493103 -4.348722 7.842804 -23.648408 -0.230811 3.607518 57.460524 0.594401 1.489505 -0.553150 0.079000 -0.000000 -70.213701 8.244976 1.440368 -1.751836 14.199255 3.298687 -58.165796 1.383846 -4.331904 54.712329 -2.126831 -4.746485 -20.482043 1.207000 0.000000 -0.524900
-11.692762 15.962437 -0.460997 147.763255 86.906351 173.043023 -11.931752 1.313682 -4.473177 -4.315100 7.803935 -24.327060 -0.085120 3.660873 58.518131 0.649628 1.673613 0.810168 0.106600 -0.000001 -67.215900 8.269954 1.413200 -1.755435 14.211764 3.273679 -57.980511 1.378673 -4.338746 54.998198 -2.156454 -4.762200 -20.938582 1.272600 0.000000 -0.384100
-11.572650 15.969152 -0.433714 147.091431 86.814838 172.555754 -11.954606 1.261068 -4.467437 -4.308415 7.802396 -25.066092 0.052279 3.716581 59.615235 0.722033 2.019709 1.984904 0.158800 -0.000000 -63.541200 8.294798 1.385999 -1.762667 14.236558 3.235214 -57.789241 1.379013 -4.343511 55.239944 -2.177291 -4.744003 -21.355795 1.328100 -0.000000 -0.361501
-11.455316 15.977630 -0.406925 146.472657 86.733687 172.116593 -11.970942 1.198084 -4.476160 -4.329468 7.840592 -25.859009 0.179538 3.775344 60.739964 0.811043 2.555011 2.914127 0.247600 -0.000000 -59.331200 8.319812 1.358409 -1.775724 14.277365 3.172757 -57.585882 1.385924 -4.346342 55.434983 -2.189961 -4.693019 -21.739455 1.373900 0.000000 -0.498700
-11.340583 15.987816 -0.380569 145.901370 86.660118 171.717700 -11.980057 1.125942 -4.498614 -4.378970 7.918203 -26.699611 0.295556 3.837503 61.877257 0.916035 3.295384 3.556558 0.379600 0.000000 -54.800400 8.345310 1.330001 -1.795910 14.335677 3.078156 -57.366276 1.399859 -4.347351 55.581334 -2.195044 -4.611606 -22.091004 1.410000 -0.000000 -0.817601
